<svg xmlns="http://www.w3.org/2000/svg" version="1.1" xmlns:xlink="http://www.w3.org/1999/xlink" xmlns:svgjs="http://svgjs.com/svgjs" width="500" height="500"><svg xmlns="http://www.w3.org/2000/svg" xmlns:xlink="http://www.w3.org/1999/xlink" width="500" zoomAndPan="magnify" viewBox="0 0 375 374.999991" height="500" preserveAspectRatio="xMidYMid meet" version="1.0"><defs><clipPath id="SvgjsClipPath1005"><path d="M 223 126 L 370.316406 126 L 370.316406 249 L 223 249 Z M 223 126 " clip-rule="nonzero"></path></clipPath><clipPath id="SvgjsClipPath1004"><path d="M 167 45.546875 L 290 45.546875 L 290 168 L 167 168 Z M 167 45.546875 " clip-rule="nonzero"></path></clipPath><clipPath id="SvgjsClipPath1003"><path d="M 85 45.546875 L 209 45.546875 L 209 168 L 85 168 Z M 85 45.546875 " clip-rule="nonzero"></path></clipPath><clipPath id="SvgjsClipPath1002"><path d="M 167 207 L 290 207 L 290 329.796875 L 167 329.796875 Z M 167 207 " clip-rule="nonzero"></path></clipPath><clipPath id="SvgjsClipPath1001"><path d="M 85 207 L 208 207 L 208 329.796875 L 85 329.796875 Z M 85 207 " clip-rule="nonzero"></path></clipPath><clipPath id="SvgjsClipPath1000"><path d="M 4.316406 126 L 131 126 L 131 249 L 4.316406 249 Z M 4.316406 126 " clip-rule="nonzero"></path></clipPath></defs><g clip-path="url(#d3b75f5a87)"><path fill="#141827" d="M 327.621094 187.46875 L 309.265625 169.160156 L 290.914062 187.46875 L 309.265625 205.78125 Z M 309.265625 126.558594 C 310.339844 126.558594 311.414062 126.96875 312.234375 127.785156 L 369.085938 184.507812 C 369.871094 185.292969 370.3125 186.359375 370.3125 187.46875 C 370.3125 188.585938 369.871094 189.648438 369.085938 190.433594 L 312.234375 247.15625 C 310.59375 248.792969 307.9375 248.792969 306.296875 247.15625 L 268.695312 209.640625 L 268.261719 210.074219 C 266.621094 211.710938 263.960938 211.710938 262.320312 210.074219 C 260.679688 208.4375 260.679688 205.785156 262.320312 204.144531 L 306.296875 160.269531 C 307.9375 158.632812 310.59375 158.632812 312.234375 160.269531 L 336.53125 184.507812 C 337.316406 185.292969 337.757812 186.359375 337.757812 187.46875 C 337.757812 188.585938 337.316406 189.648438 336.53125 190.433594 L 312.234375 214.671875 C 310.59375 216.308594 307.9375 216.308594 306.296875 214.671875 L 284.972656 193.398438 L 274.632812 203.710938 L 309.265625 238.265625 L 360.175781 187.46875 L 309.265625 136.675781 L 231.109375 214.660156 C 229.46875 216.296875 226.808594 216.296875 225.167969 214.660156 C 223.527344 213.023438 223.527344 210.371094 225.167969 208.734375 L 306.296875 127.789062 C 307.117188 126.96875 308.191406 126.558594 309.265625 126.558594 " fill-opacity="1" fill-rule="nonzero"></path></g><g clip-path="url(#a89f4d6fe4)"><path fill="#141827" d="M 187.578125 118.554688 C 188.652344 118.554688 189.726562 118.964844 190.546875 119.785156 L 231.113281 160.257812 C 232.75 161.894531 232.75 164.546875 231.113281 166.183594 C 229.46875 167.820312 226.8125 167.820312 225.171875 166.183594 L 184.609375 125.707031 C 182.964844 124.074219 182.964844 121.417969 184.609375 119.785156 C 185.429688 118.964844 186.503906 118.554688 187.578125 118.554688 Z M 246.492188 106.5 L 228.140625 88.1875 L 209.789062 106.5 L 228.140625 124.8125 Z M 228.140625 78.066406 C 229.253906 78.066406 230.324219 78.507812 231.113281 79.296875 L 255.402344 103.539062 C 257.042969 105.171875 257.042969 107.828125 255.402344 109.464844 L 231.113281 133.703125 C 229.535156 135.273438 226.746094 135.273438 225.171875 133.703125 L 200.878906 109.464844 C 199.238281 107.828125 199.238281 105.171875 200.878906 103.539062 L 225.171875 79.296875 C 225.960938 78.507812 227.027344 78.066406 228.140625 78.066406 Z M 228.140625 45.585938 C 229.253906 45.585938 230.324219 46.027344 231.113281 46.8125 L 287.957031 103.539062 C 289.597656 105.171875 289.597656 107.828125 287.960938 109.464844 L 247.410156 149.929688 C 245.769531 151.566406 243.113281 151.566406 241.472656 149.929688 C 239.828125 148.292969 239.828125 145.640625 241.46875 144.003906 L 279.046875 106.5 L 228.140625 55.703125 L 174.261719 109.464844 C 172.621094 111.101562 169.964844 111.101562 168.324219 109.464844 C 166.679688 107.828125 166.679688 105.171875 168.324219 103.539062 L 225.171875 46.8125 C 225.960938 46.027344 227.027344 45.585938 228.140625 45.585938 " fill-opacity="1" fill-rule="nonzero"></path></g><path fill="#141827" d="M 187.558594 199.5 C 188.636719 199.5 189.710938 199.910156 190.53125 200.726562 L 231.113281 241.226562 C 232.757812 242.859375 232.757812 245.515625 231.113281 247.152344 C 229.476562 248.789062 226.816406 248.789062 225.175781 247.152344 L 184.589844 206.652344 C 182.949219 205.015625 182.949219 202.363281 184.589844 200.726562 C 185.410156 199.910156 186.484375 199.5 187.558594 199.5 Z M 284.996094 183.273438 C 286.070312 183.273438 287.144531 183.6875 287.964844 184.503906 C 289.605469 186.140625 289.605469 188.792969 287.964844 190.429688 L 247.378906 230.925781 C 245.738281 232.5625 243.078125 232.5625 241.4375 230.925781 C 239.800781 229.289062 239.800781 226.636719 241.4375 225 L 282.027344 184.503906 C 282.847656 183.6875 283.921875 183.273438 284.996094 183.273438 Z M 246.5 187.464844 L 228.144531 169.15625 L 209.792969 187.464844 L 228.144531 205.78125 Z M 228.144531 159.035156 C 229.21875 159.035156 230.292969 159.445312 231.113281 160.265625 L 255.410156 184.5 C 256.199219 185.289062 256.640625 186.355469 256.640625 187.464844 C 256.640625 188.578125 256.199219 189.644531 255.410156 190.429688 L 231.113281 214.667969 C 229.476562 216.304688 226.816406 216.308594 225.175781 214.667969 L 200.882812 190.429688 C 199.242188 188.792969 199.242188 186.140625 200.882812 184.503906 L 225.175781 160.265625 C 225.996094 159.445312 227.070312 159.035156 228.144531 159.035156 Z M 211.886719 142.78125 C 212.960938 142.78125 214.035156 143.1875 214.855469 144.007812 C 216.496094 145.640625 216.496094 148.300781 214.855469 149.933594 L 174.269531 190.429688 C 172.628906 192.066406 169.96875 192.066406 168.328125 190.429688 C 166.691406 188.792969 166.691406 186.140625 168.328125 184.5 L 208.917969 144.007812 C 209.738281 143.1875 210.8125 142.78125 211.886719 142.78125 Z M 228.144531 126.554688 C 229.21875 126.554688 230.292969 126.964844 231.113281 127.785156 L 271.671875 168.246094 C 273.3125 169.882812 273.3125 172.535156 271.671875 174.171875 C 270.03125 175.808594 267.371094 175.808594 265.730469 174.171875 L 225.175781 133.707031 C 223.535156 132.074219 223.535156 129.417969 225.175781 127.785156 C 225.996094 126.964844 227.070312 126.554688 228.144531 126.554688 " fill-opacity="1" fill-rule="nonzero"></path><path fill="#141827" d="M 228.144531 159.035156 C 229.21875 159.035156 230.292969 159.445312 231.113281 160.261719 C 232.757812 161.898438 232.757812 164.554688 231.113281 166.1875 L 190.5625 206.652344 C 188.921875 208.289062 186.265625 208.289062 184.621094 206.652344 C 182.984375 205.015625 182.984375 202.359375 184.621094 200.726562 L 225.175781 160.261719 C 225.996094 159.445312 227.070312 159.035156 228.144531 159.035156 Z M 205.945312 146.964844 L 187.59375 128.65625 L 169.242188 146.964844 L 187.59375 165.277344 Z M 187.59375 118.539062 C 188.664062 118.539062 189.742188 118.949219 190.5625 119.765625 L 214.855469 144.003906 C 215.644531 144.789062 216.085938 145.855469 216.085938 146.964844 C 216.085938 148.082031 215.644531 149.144531 214.855469 149.929688 L 190.5625 174.167969 C 189.773438 174.957031 188.707031 175.394531 187.59375 175.394531 C 186.476562 175.394531 185.410156 174.957031 184.621094 174.167969 L 160.332031 149.929688 C 158.6875 148.292969 158.6875 145.640625 160.332031 144.003906 L 184.621094 119.765625 C 185.445312 118.949219 186.519531 118.539062 187.59375 118.539062 Z M 203.863281 102.292969 C 204.941406 102.292969 206.015625 102.703125 206.835938 103.519531 L 233.140625 129.761719 C 234.78125 131.402344 234.78125 134.054688 233.140625 135.691406 C 231.5 137.324219 228.839844 137.324219 227.199219 135.691406 L 200.894531 109.449219 C 199.253906 107.808594 199.253906 105.160156 200.894531 103.519531 C 201.714844 102.703125 202.789062 102.292969 203.863281 102.292969 Z M 187.59375 86.058594 C 188.664062 86.058594 189.742188 86.464844 190.5625 87.285156 C 192.203125 88.921875 192.203125 91.574219 190.5625 93.210938 L 150.695312 132.988281 C 149.054688 134.625 146.398438 134.625 144.757812 132.988281 C 143.113281 131.351562 143.113281 128.699219 144.757812 127.058594 L 184.621094 87.285156 C 185.445312 86.464844 186.519531 86.058594 187.59375 86.058594 " fill-opacity="1" fill-rule="nonzero"></path><g clip-path="url(#2a703c6b77)"><path fill="#141827" d="M 165.363281 106.503906 L 147.007812 88.195312 L 128.65625 106.503906 L 147.007812 124.824219 Z M 147.007812 78.078125 C 148.085938 78.078125 149.160156 78.488281 149.976562 79.308594 L 174.273438 103.542969 C 175.910156 105.179688 175.910156 107.832031 174.273438 109.46875 L 152.949219 130.75 L 163.285156 141.0625 L 200.886719 103.542969 C 202.527344 101.90625 205.183594 101.90625 206.824219 103.542969 C 208.46875 105.179688 208.46875 107.832031 206.824219 109.46875 L 166.273438 149.933594 C 166.0625 150.144531 165.832031 150.324219 165.59375 150.484375 C 163.964844 151.558594 161.746094 151.378906 160.3125 149.949219 L 119.742188 109.46875 C 118.957031 108.683594 118.511719 107.621094 118.511719 106.503906 C 118.511719 105.398438 118.957031 104.328125 119.742188 103.542969 L 144.039062 79.304688 C 144.859375 78.488281 145.933594 78.078125 147.007812 78.078125 Z M 147.007812 45.597656 C 148.085938 45.597656 149.160156 46.007812 149.976562 46.824219 L 190.546875 87.300781 C 192.1875 88.9375 192.1875 91.589844 190.546875 93.226562 C 188.90625 94.863281 186.246094 94.863281 184.609375 93.226562 L 147.007812 55.714844 L 96.097656 106.503906 L 149.976562 160.265625 C 151.621094 161.90625 151.621094 164.554688 149.976562 166.195312 C 148.339844 167.828125 145.679688 167.828125 144.039062 166.195312 L 87.1875 109.46875 C 86.402344 108.683594 85.960938 107.621094 85.960938 106.503906 C 85.960938 105.398438 86.402344 104.328125 87.1875 103.542969 L 144.039062 46.824219 C 144.859375 46.007812 145.933594 45.597656 147.007812 45.597656 " fill-opacity="1" fill-rule="nonzero"></path></g><g clip-path="url(#3b6ba007eb)"><path fill="#141827" d="M 187.558594 247.972656 C 188.636719 247.972656 189.710938 248.382812 190.53125 249.199219 C 192.171875 250.835938 192.171875 253.492188 190.53125 255.128906 L 174.234375 271.386719 C 172.597656 273.023438 169.9375 273.023438 168.296875 271.386719 C 166.65625 269.753906 166.65625 267.097656 168.296875 265.460938 L 184.589844 249.203125 C 185.40625 248.382812 186.484375 247.972656 187.558594 247.972656 Z M 246.464844 268.425781 L 228.113281 250.113281 L 209.761719 268.425781 L 228.113281 286.738281 Z M 228.113281 239.992188 C 229.226562 239.992188 230.292969 240.4375 231.082031 241.222656 L 255.375 265.460938 C 257.015625 267.097656 257.015625 269.753906 255.375 271.386719 L 231.082031 295.628906 C 229.507812 297.199219 226.71875 297.199219 225.144531 295.628906 L 200.851562 271.386719 C 199.210938 269.753906 199.210938 267.097656 200.851562 265.460938 L 225.144531 241.222656 C 225.929688 240.4375 227 239.992188 228.113281 239.992188 Z M 228.113281 207.511719 C 229.1875 207.511719 230.261719 207.921875 231.082031 208.738281 L 287.929688 265.460938 C 288.71875 266.246094 289.160156 267.3125 289.160156 268.425781 C 289.160156 269.535156 288.71875 270.601562 287.929688 271.386719 L 231.082031 328.109375 C 229.441406 329.742188 226.785156 329.742188 225.144531 328.109375 L 184.570312 287.628906 C 182.929688 285.988281 182.929688 283.339844 184.570312 281.699219 C 186.210938 280.0625 188.871094 280.0625 190.511719 281.699219 L 228.113281 319.21875 L 279.019531 268.425781 L 225.144531 214.667969 C 223.503906 213.027344 223.503906 210.375 225.144531 208.738281 C 225.964844 207.921875 227.039062 207.511719 228.113281 207.511719 " fill-opacity="1" fill-rule="nonzero"></path></g><path fill="#141827" d="M 228.128906 239.976562 C 229.203125 239.976562 230.277344 240.386719 231.097656 241.207031 C 232.738281 242.839844 232.738281 245.496094 231.097656 247.128906 L 190.53125 287.609375 C 188.886719 289.242188 186.230469 289.242188 184.589844 287.609375 C 182.949219 285.96875 182.949219 283.320312 184.589844 281.679688 L 225.15625 241.203125 C 225.976562 240.386719 227.054688 239.976562 228.128906 239.976562 Z M 205.914062 227.925781 L 187.558594 209.613281 L 169.207031 227.925781 L 187.558594 246.238281 Z M 187.558594 199.496094 C 188.636719 199.496094 189.710938 199.90625 190.53125 200.722656 L 214.820312 224.960938 C 216.460938 226.597656 216.460938 229.25 214.820312 230.886719 L 190.53125 255.128906 C 188.957031 256.703125 186.164062 256.703125 184.589844 255.128906 L 160.296875 230.886719 C 158.65625 229.25 158.65625 226.597656 160.296875 224.960938 L 184.589844 200.722656 C 185.410156 199.90625 186.484375 199.496094 187.558594 199.496094 " fill-opacity="1" fill-rule="nonzero"></path><path fill="#141827" d="M 106.332031 199.441406 C 107.410156 199.441406 108.480469 199.851562 109.304688 200.671875 L 149.945312 241.222656 C 151.585938 242.859375 151.585938 245.511719 149.945312 247.152344 C 148.304688 248.785156 145.648438 248.789062 144.007812 247.152344 L 103.363281 206.597656 C 101.722656 204.960938 101.722656 202.308594 103.363281 200.671875 C 104.183594 199.851562 105.257812 199.441406 106.332031 199.441406 Z M 165.328125 187.464844 L 146.976562 169.152344 L 128.621094 187.464844 L 146.976562 205.78125 Z M 146.976562 159.035156 C 148.050781 159.035156 149.125 159.445312 149.945312 160.261719 L 174.238281 184.5 C 175.878906 186.140625 175.878906 188.789062 174.238281 190.429688 L 149.945312 214.667969 C 148.371094 216.242188 145.582031 216.242188 144.007812 214.667969 L 119.710938 190.429688 C 118.921875 189.640625 118.480469 188.574219 118.480469 187.464844 C 118.480469 186.351562 118.921875 185.285156 119.710938 184.5 L 144.007812 160.261719 C 144.824219 159.445312 145.898438 159.035156 146.976562 159.035156 Z M 130.730469 142.761719 C 131.804688 142.761719 132.878906 143.167969 133.699219 143.988281 C 135.339844 145.625 135.339844 148.28125 133.699219 149.914062 L 93.097656 190.425781 C 91.457031 192.066406 88.796875 192.066406 87.160156 190.425781 C 85.515625 188.789062 85.515625 186.136719 87.160156 184.5 L 127.761719 143.988281 C 128.582031 143.167969 129.65625 142.761719 130.730469 142.761719 Z M 146.976562 126.550781 C 148.050781 126.550781 149.125 126.964844 149.945312 127.78125 L 190.53125 168.277344 C 192.171875 169.914062 192.171875 172.566406 190.53125 174.207031 C 188.886719 175.835938 186.230469 175.839844 184.589844 174.203125 L 144.007812 133.703125 C 142.363281 132.070312 142.363281 129.417969 144.007812 127.78125 C 144.824219 126.964844 145.898438 126.550781 146.976562 126.550781 " fill-opacity="1" fill-rule="nonzero"></path><g clip-path="url(#0cf2835140)"><path fill="#141827" d="M 165.273438 268.332031 L 146.917969 250.019531 L 128.566406 268.332031 L 146.917969 286.644531 Z M 146.917969 239.902344 C 148.035156 239.902344 149.101562 240.34375 149.886719 241.128906 L 174.183594 265.371094 C 175.820312 267.003906 175.820312 269.660156 174.183594 271.292969 L 149.886719 295.535156 C 148.3125 297.109375 145.523438 297.109375 143.949219 295.535156 L 119.65625 271.292969 C 118.015625 269.660156 118.015625 267.003906 119.65625 265.371094 L 143.949219 241.128906 C 144.734375 240.34375 145.804688 239.902344 146.917969 239.902344 Z M 130.640625 223.664062 C 131.71875 223.664062 132.792969 224.070312 133.613281 224.890625 C 135.253906 226.527344 135.253906 229.179688 133.613281 230.816406 L 96.011719 268.332031 L 146.917969 319.128906 L 200.796875 265.371094 C 202.4375 263.730469 205.09375 263.730469 206.734375 265.367188 C 208.375 267.003906 208.375 269.660156 206.734375 271.292969 L 149.886719 328.019531 C 148.3125 329.589844 145.523438 329.589844 143.949219 328.019531 L 87.101562 271.292969 C 86.3125 270.511719 85.871094 269.445312 85.871094 268.332031 C 85.871094 267.222656 86.3125 266.152344 87.101562 265.371094 L 127.671875 224.890625 C 128.492188 224.070312 129.566406 223.664062 130.640625 223.664062 Z M 146.917969 207.421875 C 147.992188 207.421875 149.070312 207.832031 149.886719 208.648438 L 190.53125 249.203125 C 192.175781 250.835938 192.175781 253.492188 190.53125 255.128906 C 188.890625 256.761719 186.230469 256.761719 184.589844 255.128906 L 143.949219 214.578125 C 142.308594 212.9375 142.308594 210.285156 143.949219 208.648438 C 144.769531 207.832031 145.84375 207.421875 146.917969 207.421875 " fill-opacity="1" fill-rule="nonzero"></path></g><g clip-path="url(#b25c56ce56)"><path fill="#141827" d="M 84.132812 187.375 L 65.78125 169.058594 L 47.429688 187.375 L 65.78125 205.683594 Z M 65.78125 158.945312 C 66.855469 158.945312 67.933594 159.351562 68.753906 160.171875 L 93.046875 184.410156 C 93.832031 185.195312 94.277344 186.261719 94.277344 187.375 C 94.277344 188.484375 93.832031 189.550781 93.046875 190.335938 L 68.753906 214.574219 C 67.109375 216.210938 64.453125 216.210938 62.8125 214.574219 L 38.519531 190.335938 C 36.878906 188.703125 36.878906 186.046875 38.519531 184.410156 L 62.8125 160.171875 C 63.632812 159.351562 64.707031 158.945312 65.78125 158.945312 Z M 65.78125 126.460938 C 66.855469 126.460938 67.933594 126.867188 68.753906 127.6875 L 109.394531 168.238281 C 111.03125 169.878906 111.03125 172.53125 109.394531 174.167969 C 107.753906 175.804688 105.097656 175.804688 103.457031 174.167969 L 65.78125 136.578125 L 14.871094 187.375 L 65.78125 238.167969 L 122.921875 181.152344 C 124.566406 179.519531 127.222656 179.515625 128.863281 181.152344 C 130.503906 182.789062 130.503906 185.441406 128.863281 187.078125 L 68.753906 247.058594 C 67.960938 247.839844 66.898438 248.28125 65.78125 248.28125 C 64.667969 248.28125 63.597656 247.839844 62.8125 247.058594 L 5.96875 190.335938 C 4.324219 188.703125 4.324219 186.046875 5.96875 184.410156 L 62.8125 127.6875 C 63.632812 126.867188 64.707031 126.460938 65.78125 126.460938 " fill-opacity="1" fill-rule="nonzero"></path></g></svg><style>@media (prefers-color-scheme: light) { :root { filter: none; } }
</style></svg>